<?xml version="1.0" encoding="utf-8"?>
<!-- Generator: Adobe Illustrator 26.4.1, SVG Export Plug-In . SVG Version: 6.00 Build 0)  -->
<svg version="1.1" id="Layer_1" xmlns="http://www.w3.org/2000/svg" xmlns:xlink="http://www.w3.org/1999/xlink" x="0px" y="0px"
	 viewBox="0 0 500 121.05" style="enable-background:new 0 0 500 121.05;" xml:space="preserve">
<style type="text/css">
	.st0{clip-path:url(#SVGID_00000057859974992438282930000002251061158246791042_);}
	.st1{clip-path:url(#SVGID_00000062180512699004623300000011443127612590460311_);fill:#FFFFFF;}
	.st2{clip-path:url(#SVGID_00000062180512699004623300000011443127612590460311_);fill:#00E1C4;}
</style>
<g id="Artwork_17_00000062879226222402566530000003083823562037049502_">
	<g>
		<defs>
			<rect id="SVGID_1_" x="31.58" y="24.77" width="436.84" height="71.5"/>
		</defs>
		<clipPath id="SVGID_00000169559019761464599520000017423249090614598589_">
			<use xlink:href="#SVGID_1_"  style="overflow:visible;"/>
		</clipPath>
		<g style="clip-path:url(#SVGID_00000169559019761464599520000017423249090614598589_);">
			<defs>
				<rect id="SVGID_00000139253463646931172860000005226848484404498326_" x="31.58" y="24.77" width="436.84" height="71.5"/>
			</defs>
			<clipPath id="SVGID_00000139268699285001376680000007899037814634170804_">
				<use xlink:href="#SVGID_00000139253463646931172860000005226848484404498326_"  style="overflow:visible;"/>
			</clipPath>
			<path style="clip-path:url(#SVGID_00000139268699285001376680000007899037814634170804_);fill:#FFFFFF;" d="M50.88,61.64
				c-2.75,0-5.3-0.45-7.66-1.35c-2.36-0.9-4.4-2.18-6.13-3.84c-1.73-1.66-3.08-3.61-4.05-5.86c-0.97-2.24-1.45-4.7-1.45-7.38
				c0-2.68,0.48-5.14,1.45-7.38c0.97-2.24,2.32-4.19,4.07-5.86c1.75-1.66,3.8-2.94,6.16-3.84c2.36-0.9,4.91-1.35,7.66-1.35
				c3.09,0,5.89,0.54,8.4,1.6c2.51,1.07,4.62,2.64,6.31,4.71l-5.35,4.89c-1.19-1.39-2.54-2.44-4.05-3.16
				c-1.51-0.71-3.15-1.07-4.91-1.07c-1.66,0-3.19,0.28-4.58,0.84c-1.39,0.56-2.6,1.35-3.61,2.37c-1.02,1.02-1.81,2.22-2.37,3.61
				s-0.84,2.94-0.84,4.63s0.28,3.24,0.84,4.63c0.56,1.39,1.35,2.6,2.37,3.61c1.02,1.02,2.22,1.81,3.61,2.37
				c1.39,0.56,2.92,0.84,4.58,0.84c1.77,0,3.4-0.36,4.91-1.09c1.51-0.73,2.86-1.79,4.05-3.18l5.35,4.89
				c-1.7,2.07-3.8,3.65-6.31,4.74C56.82,61.09,54,61.64,50.88,61.64"/>
			<path style="clip-path:url(#SVGID_00000139268699285001376680000007899037814634170804_);fill:#FFFFFF;" d="M79.34,54.41h19.4
				v6.62h-27.6V25.39h26.93V32H79.34V54.41z M78.72,39.69h17.16v6.47H78.72V39.69z"/>
			<polygon style="clip-path:url(#SVGID_00000139268699285001376680000007899037814634170804_);fill:#FFFFFF;" points="105.3,61.03 
				105.3,25.39 113.6,25.39 113.6,54.31 131.37,54.31 131.37,61.03 			"/>
			
				<rect x="136.05" y="25.39" style="clip-path:url(#SVGID_00000139268699285001376680000007899037814634170804_);fill:#FFFFFF;" width="8.3" height="35.64"/>
			<path style="clip-path:url(#SVGID_00000139268699285001376680000007899037814634170804_);fill:#FFFFFF;" d="M148.07,61.03
				l15.83-35.64h8.15l15.99,35.64h-8.66L166.3,29.56h3.31l-13.09,31.47H148.07z M156.06,53.39l2.09-6.26h18.43l2.14,6.26H156.06z"/>
			<path style="clip-path:url(#SVGID_00000139268699285001376680000007899037814634170804_);fill:#00E1C4;" d="M201.48,61.03
				l15.83-35.64h8.15l15.99,35.64h-8.66L219.7,29.56h3.31l-13.09,31.47H201.48z M209.47,53.39l2.09-6.26h18.43l2.14,6.26H209.47z"/>
			<polygon style="clip-path:url(#SVGID_00000139268699285001376680000007899037814634170804_);fill:#00E1C4;" points="
				245.16,61.03 245.16,25.39 253.46,25.39 253.46,54.31 271.23,54.31 271.23,61.03 			"/>
			<polygon style="clip-path:url(#SVGID_00000139268699285001376680000007899037814634170804_);fill:#00E1C4;" points="
				275.91,61.03 275.91,25.39 284.21,25.39 284.21,54.31 301.98,54.31 301.98,61.03 			"/>
			
				<rect x="306.67" y="25.39" style="clip-path:url(#SVGID_00000139268699285001376680000007899037814634170804_);fill:#00E1C4;" width="8.3" height="35.64"/>
			<path style="clip-path:url(#SVGID_00000139268699285001376680000007899037814634170804_);fill:#00E1C4;" d="M318.68,61.03
				l15.83-35.64h8.15l15.99,35.64h-8.66l-13.08-31.47h3.31l-13.09,31.47H318.68z M326.68,53.39l2.09-6.26h18.43l2.14,6.26H326.68z"
				/>
			<polygon style="clip-path:url(#SVGID_00000139268699285001376680000007899037814634170804_);fill:#00E1C4;" points="
				362.37,61.03 362.37,25.39 369.19,25.39 390.22,51.05 386.91,51.05 386.91,25.39 395.05,25.39 395.05,61.03 388.23,61.03 
				367.2,35.36 370.51,35.36 370.51,61.03 			"/>
			<path style="clip-path:url(#SVGID_00000139268699285001376680000007899037814634170804_);fill:#00E1C4;" d="M420.56,61.64
				c-2.75,0-5.3-0.45-7.66-1.35c-2.36-0.9-4.4-2.18-6.13-3.84c-1.73-1.66-3.08-3.61-4.05-5.86c-0.97-2.24-1.45-4.7-1.45-7.38
				c0-2.68,0.48-5.14,1.45-7.38c0.97-2.24,2.32-4.19,4.07-5.86c1.75-1.66,3.8-2.94,6.16-3.84c2.36-0.9,4.91-1.35,7.66-1.35
				c3.09,0,5.89,0.54,8.4,1.6c2.51,1.07,4.62,2.64,6.31,4.71l-5.35,4.89c-1.19-1.39-2.54-2.44-4.05-3.16
				c-1.51-0.71-3.15-1.07-4.91-1.07c-1.66,0-3.19,0.28-4.58,0.84c-1.39,0.56-2.6,1.35-3.61,2.37c-1.02,1.02-1.81,2.22-2.37,3.61
				c-0.56,1.39-0.84,2.94-0.84,4.63s0.28,3.24,0.84,4.63c0.56,1.39,1.35,2.6,2.37,3.61c1.02,1.02,2.22,1.81,3.61,2.37
				c1.39,0.56,2.92,0.84,4.58,0.84c1.77,0,3.4-0.36,4.91-1.09c1.51-0.73,2.86-1.79,4.05-3.18l5.35,4.89
				c-1.7,2.07-3.8,3.65-6.31,4.74C426.5,61.09,423.68,61.64,420.56,61.64"/>
			<path style="clip-path:url(#SVGID_00000139268699285001376680000007899037814634170804_);fill:#00E1C4;" d="M449.02,54.41h19.4
				v6.62h-27.6V25.39h26.93V32h-18.74V54.41z M448.41,39.69h17.16v6.47h-17.16V39.69z"/>
			<polygon style="clip-path:url(#SVGID_00000139268699285001376680000007899037814634170804_);fill:#FFFFFF;" points="35.86,95.94 
				35.86,77.3 37.16,77.3 37.16,94.81 45.76,94.81 45.76,95.94 			"/>
			<path style="clip-path:url(#SVGID_00000139268699285001376680000007899037814634170804_);fill:#FFFFFF;" d="M55.09,96.28
				c-0.72,0-1.37-0.13-1.97-0.4c-0.59-0.26-1.07-0.67-1.43-1.23c-0.36-0.56-0.54-1.25-0.54-2.08c0-1.53,0.71-2.68,2.12-3.47
				c1.41-0.78,3.63-1.34,6.65-1.68c0-0.7-0.08-1.38-0.24-2.04c-0.16-0.66-0.47-1.2-0.93-1.63c-0.46-0.42-1.15-0.64-2.05-0.64
				c-0.91,0-1.74,0.17-2.49,0.52c-0.75,0.35-1.37,0.68-1.84,1l-0.57-0.88c0.32-0.25,0.74-0.5,1.24-0.78
				c0.51-0.27,1.09-0.5,1.74-0.69c0.65-0.19,1.34-0.28,2.08-0.28c1.06,0,1.9,0.24,2.53,0.71c0.63,0.47,1.09,1.1,1.36,1.9
				c0.27,0.79,0.41,1.67,0.41,2.63v8.68H60.1l-0.11-1.75H59.9c-0.68,0.55-1.43,1.03-2.25,1.46C56.83,96.07,55.98,96.28,55.09,96.28
				 M55.32,95.18c0.77,0,1.52-0.18,2.25-0.55c0.73-0.37,1.51-0.91,2.36-1.63v-4.58c-1.87,0.21-3.35,0.49-4.44,0.86
				c-1.09,0.37-1.88,0.82-2.35,1.34c-0.47,0.53-0.71,1.15-0.71,1.87c0,0.96,0.29,1.65,0.86,2.06
				C53.87,94.97,54.54,95.18,55.32,95.18"/>
			<path style="clip-path:url(#SVGID_00000139268699285001376680000007899037814634170804_);fill:#FFFFFF;" d="M71.3,95.94
				l-4.02-13.58h1.36l2.43,8.8c0.17,0.62,0.33,1.23,0.49,1.81c0.16,0.58,0.31,1.2,0.44,1.84h0.11c0.15-0.64,0.31-1.25,0.48-1.84
				c0.17-0.58,0.33-1.19,0.48-1.81l2.46-8.8h1.56l2.46,8.8c0.17,0.62,0.33,1.23,0.49,1.81c0.16,0.58,0.32,1.2,0.5,1.84h0.11
				c0.15-0.64,0.31-1.25,0.47-1.84c0.16-0.58,0.32-1.19,0.49-1.81l2.4-8.8h1.27l-3.9,13.58h-1.67l-2.38-8.43
				c-0.17-0.66-0.33-1.31-0.5-1.94c-0.16-0.63-0.33-1.29-0.52-1.97h-0.11c-0.15,0.68-0.31,1.34-0.48,1.99
				c-0.17,0.65-0.36,1.31-0.57,1.97l-2.32,8.37H71.3z"/>
			<path style="clip-path:url(#SVGID_00000139268699285001376680000007899037814634170804_);fill:#FFFFFF;" d="M104.45,96.28
				c-0.98,0-1.88-0.2-2.7-0.61c-0.82-0.41-1.47-0.99-1.97-1.75c-0.49-0.76-0.74-1.66-0.74-2.7c0-0.87,0.21-1.64,0.62-2.32
				c0.42-0.68,0.94-1.3,1.57-1.87c0.63-0.57,1.31-1.1,2.02-1.6c0.72-0.5,1.39-1,2.02-1.51c0.63-0.51,1.15-1.05,1.56-1.61
				c0.41-0.57,0.61-1.2,0.61-1.9c0-0.6-0.15-1.16-0.45-1.67s-0.83-0.76-1.58-0.76c-0.81,0-1.45,0.3-1.92,0.91
				c-0.47,0.6-0.71,1.33-0.71,2.18c0,0.96,0.21,1.97,0.62,3.03c0.41,1.06,0.97,2.11,1.65,3.15c0.69,1.05,1.46,2.04,2.31,2.98
				c0.85,0.94,1.71,1.77,2.57,2.49c0.72,0.62,1.42,1.14,2.11,1.54c0.69,0.41,1.31,0.71,1.88,0.92l-0.42,1.1
				c-0.62-0.23-1.3-0.56-2.04-0.99c-0.74-0.43-1.5-0.98-2.29-1.64c-0.92-0.81-1.83-1.72-2.73-2.73c-0.9-1.01-1.71-2.08-2.45-3.21
				s-1.31-2.26-1.74-3.38c-0.43-1.12-0.64-2.19-0.64-3.21c0-0.79,0.16-1.5,0.48-2.14c0.32-0.63,0.77-1.13,1.36-1.49
				c0.58-0.36,1.25-0.54,2.01-0.54c1,0,1.77,0.32,2.31,0.96c0.54,0.64,0.81,1.45,0.81,2.43c0,0.77-0.19,1.48-0.58,2.11
				c-0.39,0.63-0.9,1.22-1.53,1.77c-0.63,0.55-1.3,1.07-2.01,1.58s-1.38,1.03-2.01,1.57c-0.63,0.54-1.15,1.11-1.54,1.73
				c-0.4,0.61-0.59,1.29-0.59,2.02c0,0.83,0.19,1.55,0.58,2.15c0.39,0.6,0.9,1.07,1.54,1.41c0.64,0.34,1.34,0.51,2.09,0.51
				c0.87,0,1.68-0.23,2.43-0.68c0.75-0.45,1.44-1.02,2.06-1.7c0.79-0.89,1.47-1.89,2.02-3.01c0.56-1.12,1-2.33,1.34-3.64h1.22
				c-0.4,1.38-0.89,2.69-1.5,3.95c-0.6,1.25-1.33,2.38-2.18,3.38c-0.72,0.81-1.52,1.48-2.4,1.99
				C106.65,96.02,105.62,96.28,104.45,96.28"/>
			<polygon style="clip-path:url(#SVGID_00000139268699285001376680000007899037814634170804_);fill:#FFFFFF;" points="133.1,95.94 
				133.1,78.43 127.16,78.43 127.16,77.3 140.34,77.3 140.34,78.43 134.4,78.43 134.4,95.94 			"/>
			<path style="clip-path:url(#SVGID_00000139268699285001376680000007899037814634170804_);fill:#FFFFFF;" d="M147.73,96.28
				c-0.72,0-1.37-0.13-1.97-0.4c-0.6-0.26-1.07-0.67-1.43-1.23c-0.36-0.56-0.54-1.25-0.54-2.08c0-1.53,0.71-2.68,2.12-3.47
				c1.41-0.78,3.63-1.34,6.65-1.68c0-0.7-0.08-1.38-0.24-2.04c-0.16-0.66-0.47-1.2-0.93-1.63c-0.46-0.42-1.15-0.64-2.05-0.64
				c-0.91,0-1.74,0.17-2.49,0.52c-0.75,0.35-1.37,0.68-1.84,1l-0.57-0.88c0.32-0.25,0.74-0.5,1.25-0.78
				c0.51-0.27,1.09-0.5,1.74-0.69c0.65-0.19,1.34-0.28,2.08-0.28c1.06,0,1.9,0.24,2.53,0.71c0.63,0.47,1.08,1.1,1.36,1.9
				c0.27,0.79,0.41,1.67,0.41,2.63v8.68h-1.07l-0.11-1.75h-0.08c-0.68,0.55-1.43,1.03-2.25,1.46
				C149.47,96.07,148.61,96.28,147.73,96.28 M147.95,95.18c0.77,0,1.52-0.18,2.25-0.55c0.73-0.37,1.51-0.91,2.36-1.63v-4.58
				c-1.87,0.21-3.35,0.49-4.44,0.86c-1.09,0.37-1.88,0.82-2.35,1.34c-0.47,0.53-0.71,1.15-0.71,1.87c0,0.96,0.29,1.65,0.86,2.06
				C146.51,94.97,147.18,95.18,147.95,95.18"/>
			<path style="clip-path:url(#SVGID_00000139268699285001376680000007899037814634170804_);fill:#FFFFFF;" d="M159.64,95.94
				l4.61-7.1L160,82.36h1.39l2.21,3.45c0.23,0.36,0.46,0.73,0.71,1.1c0.24,0.38,0.49,0.75,0.73,1.13h0.11
				c0.24-0.38,0.48-0.75,0.71-1.13c0.23-0.38,0.45-0.74,0.68-1.1l2.12-3.45h1.3l-4.22,6.59l4.61,6.99h-1.39l-2.4-3.71
				c-0.25-0.43-0.5-0.86-0.78-1.27s-0.55-0.82-0.84-1.22h-0.11c-0.26,0.4-0.52,0.8-0.78,1.22c-0.25,0.42-0.51,0.84-0.78,1.27
				l-2.32,3.71H159.64z"/>
			<path style="clip-path:url(#SVGID_00000139268699285001376680000007899037814634170804_);fill:#FFFFFF;" d="M183.59,83.44v-0.96
				l2.04-0.11h4.36v1.07H183.59z M185.6,95.94v-16.6c0-0.91,0.13-1.66,0.4-2.26c0.26-0.6,0.64-1.06,1.14-1.36
				c0.5-0.3,1.11-0.45,1.83-0.45c0.32,0,0.65,0.04,1,0.11c0.35,0.08,0.67,0.19,0.98,0.34l-0.37,0.96c-0.57-0.23-1.1-0.34-1.61-0.34
				c-0.72,0-1.25,0.27-1.6,0.81c-0.35,0.54-0.52,1.3-0.52,2.28v16.52H185.6z"/>
			<path style="clip-path:url(#SVGID_00000139268699285001376680000007899037814634170804_);fill:#FFFFFF;" d="M200.71,96.28
				c-1.07,0-2.08-0.28-3.01-0.83c-0.93-0.56-1.68-1.37-2.23-2.43c-0.56-1.06-0.83-2.34-0.83-3.83c0-1.51,0.28-2.8,0.83-3.88
				c0.56-1.07,1.3-1.89,2.23-2.45c0.93-0.56,1.94-0.83,3.01-0.83c1.09,0,2.1,0.28,3.03,0.83c0.92,0.56,1.67,1.37,2.23,2.45
				c0.57,1.07,0.85,2.37,0.85,3.88c0,1.49-0.28,2.77-0.85,3.83c-0.57,1.07-1.31,1.88-2.23,2.43C202.81,96,201.8,96.28,200.71,96.28
				 M200.71,95.18c0.92,0,1.75-0.25,2.48-0.75c0.73-0.5,1.3-1.2,1.71-2.11c0.41-0.91,0.62-1.95,0.62-3.14
				c0-1.19-0.21-2.24-0.62-3.15c-0.41-0.91-0.99-1.63-1.71-2.14c-0.73-0.51-1.55-0.76-2.48-0.76c-0.91,0-1.72,0.25-2.43,0.76
				c-0.72,0.51-1.29,1.22-1.71,2.14c-0.42,0.92-0.64,1.97-0.64,3.15c0,1.19,0.21,2.23,0.64,3.14c0.42,0.91,0.99,1.61,1.71,2.11
				C198.99,94.93,199.8,95.18,200.71,95.18"/>
			<path style="clip-path:url(#SVGID_00000139268699285001376680000007899037814634170804_);fill:#FFFFFF;" d="M214.08,95.94V82.36
				h1.07l0.11,2.52h0.08c0.43-0.83,0.98-1.51,1.63-2.05c0.65-0.54,1.39-0.81,2.22-0.81c0.25,0,0.48,0.02,0.69,0.06
				c0.22,0.04,0.44,0.11,0.67,0.23l-0.34,1.07c-0.19-0.06-0.36-0.1-0.52-0.13c-0.16-0.03-0.38-0.04-0.67-0.04
				c-0.6,0-1.24,0.26-1.91,0.78c-0.67,0.52-1.27,1.42-1.8,2.7v9.25H214.08z"/>
			
				<rect x="235.24" y="77.3" style="clip-path:url(#SVGID_00000139268699285001376680000007899037814634170804_);fill:#FFFFFF;" width="1.3" height="18.64"/>
			<path style="clip-path:url(#SVGID_00000139268699285001376680000007899037814634170804_);fill:#FFFFFF;" d="M245.09,95.94V82.36
				h1.07l0.11,2.09h0.08c0.7-0.7,1.42-1.28,2.16-1.74c0.74-0.46,1.58-0.69,2.5-0.69c1.41,0,2.45,0.43,3.11,1.29
				c0.66,0.86,0.99,2.16,0.99,3.92v8.71h-1.24V87.4c0-1.45-0.24-2.52-0.72-3.21c-0.48-0.69-1.28-1.03-2.39-1.03
				c-0.81,0-1.54,0.21-2.19,0.64c-0.65,0.42-1.4,1.06-2.25,1.91v10.24H245.09z"/>
			<path style="clip-path:url(#SVGID_00000139268699285001376680000007899037814634170804_);fill:#FFFFFF;" d="M267.03,96.17
				c-1.32,0-2.22-0.38-2.69-1.13c-0.47-0.75-0.71-1.73-0.71-2.94v-8.66h-2.12v-0.96l2.15-0.11l0.17-4.5h1.07v4.5h3.93v1.07h-3.93
				v8.74c0,0.87,0.15,1.57,0.45,2.11c0.3,0.54,0.92,0.81,1.84,0.81c0.26,0,0.53-0.03,0.81-0.1c0.27-0.07,0.57-0.17,0.89-0.32
				l0.4,0.88c-0.36,0.19-0.74,0.34-1.13,0.45C267.77,96.11,267.39,96.17,267.03,96.17"/>
			<path style="clip-path:url(#SVGID_00000139268699285001376680000007899037814634170804_);fill:#FFFFFF;" d="M280.19,96.28
				c-1.17,0-2.23-0.28-3.17-0.85c-0.94-0.57-1.7-1.38-2.26-2.45c-0.57-1.07-0.85-2.33-0.85-3.81c0-1.49,0.28-2.77,0.85-3.83
				c0.57-1.07,1.3-1.89,2.19-2.46c0.9-0.58,1.85-0.86,2.87-0.86c1.07,0,2,0.25,2.79,0.74c0.78,0.49,1.38,1.2,1.8,2.14
				c0.41,0.93,0.62,2.07,0.62,3.41c0,0.15,0,0.32-0.01,0.5c-0.01,0.18-0.03,0.36-0.07,0.55h-10.27v-1.07h9.17
				c0-1.73-0.36-3.03-1.08-3.89c-0.72-0.86-1.69-1.29-2.91-1.29c-0.75,0-1.49,0.22-2.21,0.65c-0.72,0.43-1.31,1.1-1.77,1.99
				c-0.46,0.9-0.69,2.02-0.69,3.38c0,1.24,0.23,2.32,0.68,3.24c0.45,0.91,1.06,1.61,1.84,2.09c0.77,0.48,1.64,0.72,2.6,0.72
				c0.73,0,1.41-0.1,2.02-0.3c0.61-0.2,1.15-0.47,1.63-0.81l0.51,0.88c-0.53,0.36-1.12,0.67-1.78,0.93
				C282.02,96.15,281.19,96.28,280.19,96.28"/>
			<path style="clip-path:url(#SVGID_00000139268699285001376680000007899037814634170804_);fill:#FFFFFF;" d="M291.9,95.94V82.36
				h1.07l0.11,2.52h0.08c0.43-0.83,0.98-1.51,1.63-2.05c0.65-0.54,1.39-0.81,2.22-0.81c0.24,0,0.48,0.02,0.69,0.06
				c0.22,0.04,0.44,0.11,0.67,0.23l-0.34,1.07c-0.19-0.06-0.36-0.1-0.52-0.13c-0.16-0.03-0.38-0.04-0.67-0.04
				c-0.6,0-1.24,0.26-1.91,0.78c-0.67,0.52-1.27,1.42-1.8,2.7v9.25H291.9z"/>
			<path style="clip-path:url(#SVGID_00000139268699285001376680000007899037814634170804_);fill:#FFFFFF;" d="M304.06,95.94V82.36
				h1.07l0.11,2.09h0.08c0.7-0.7,1.42-1.28,2.16-1.74c0.74-0.46,1.58-0.69,2.5-0.69c1.41,0,2.45,0.43,3.11,1.29
				c0.66,0.86,0.99,2.16,0.99,3.92v8.71h-1.24V87.4c0-1.45-0.24-2.52-0.72-3.21c-0.48-0.69-1.28-1.03-2.39-1.03
				c-0.81,0-1.54,0.21-2.19,0.64c-0.65,0.42-1.4,1.06-2.25,1.91v10.24H304.06z"/>
			<path style="clip-path:url(#SVGID_00000139268699285001376680000007899037814634170804_);fill:#FFFFFF;" d="M325.27,96.28
				c-0.72,0-1.37-0.13-1.97-0.4c-0.6-0.26-1.07-0.67-1.43-1.23c-0.36-0.56-0.54-1.25-0.54-2.08c0-1.53,0.71-2.68,2.12-3.47
				c1.41-0.78,3.63-1.34,6.65-1.68c0-0.7-0.08-1.38-0.24-2.04c-0.16-0.66-0.47-1.2-0.93-1.63c-0.46-0.42-1.15-0.64-2.05-0.64
				c-0.91,0-1.74,0.17-2.49,0.52c-0.75,0.35-1.37,0.68-1.84,1l-0.57-0.88c0.32-0.25,0.74-0.5,1.24-0.78
				c0.51-0.27,1.09-0.5,1.74-0.69c0.65-0.19,1.34-0.28,2.08-0.28c1.06,0,1.9,0.24,2.53,0.71c0.63,0.47,1.08,1.1,1.36,1.9
				c0.27,0.79,0.41,1.67,0.41,2.63v8.68h-1.07l-0.11-1.75h-0.08c-0.68,0.55-1.43,1.03-2.25,1.46
				C327.01,96.07,326.16,96.28,325.27,96.28 M325.5,95.18c0.77,0,1.52-0.18,2.25-0.55c0.73-0.37,1.51-0.91,2.36-1.63v-4.58
				c-1.87,0.21-3.35,0.49-4.44,0.86c-1.09,0.37-1.88,0.82-2.35,1.34c-0.47,0.53-0.71,1.15-0.71,1.87c0,0.96,0.29,1.65,0.86,2.06
				C324.05,94.97,324.73,95.18,325.5,95.18"/>
			<path style="clip-path:url(#SVGID_00000139268699285001376680000007899037814634170804_);fill:#FFFFFF;" d="M342.78,96.17
				c-1.32,0-2.22-0.38-2.69-1.13c-0.47-0.75-0.71-1.73-0.71-2.94v-8.66h-2.12v-0.96l2.15-0.11l0.17-4.5h1.07v4.5h3.93v1.07h-3.93
				v8.74c0,0.87,0.15,1.57,0.45,2.11c0.3,0.54,0.92,0.81,1.84,0.81c0.26,0,0.53-0.03,0.81-0.1c0.27-0.07,0.57-0.17,0.89-0.32
				l0.4,0.88c-0.36,0.19-0.74,0.34-1.13,0.45C343.52,96.11,343.14,96.17,342.78,96.17"/>
			<path style="clip-path:url(#SVGID_00000139268699285001376680000007899037814634170804_);fill:#FFFFFF;" d="M351.7,79.08
				c-0.3,0-0.56-0.11-0.76-0.32c-0.21-0.22-0.31-0.5-0.31-0.84c0-0.34,0.1-0.61,0.31-0.81c0.21-0.2,0.46-0.3,0.76-0.3
				c0.32,0,0.58,0.1,0.78,0.3c0.2,0.2,0.3,0.47,0.3,0.81c0,0.34-0.1,0.62-0.3,0.84C352.27,78.97,352.02,79.08,351.7,79.08
				 M351.1,82.36h1.25v13.58h-1.25V82.36z"/>
			<path style="clip-path:url(#SVGID_00000139268699285001376680000007899037814634170804_);fill:#FFFFFF;" d="M365.72,96.28
				c-1.07,0-2.08-0.28-3.01-0.83c-0.93-0.56-1.68-1.37-2.24-2.43c-0.56-1.06-0.83-2.34-0.83-3.83c0-1.51,0.28-2.8,0.83-3.88
				c0.56-1.07,1.3-1.89,2.24-2.45c0.93-0.56,1.94-0.83,3.01-0.83c1.09,0,2.1,0.28,3.03,0.83c0.92,0.56,1.67,1.37,2.23,2.45
				c0.57,1.07,0.85,2.37,0.85,3.88c0,1.49-0.28,2.77-0.85,3.83c-0.57,1.07-1.31,1.88-2.23,2.43C367.83,96,366.82,96.28,365.72,96.28
				 M365.72,95.18c0.92,0,1.75-0.25,2.48-0.75c0.73-0.5,1.3-1.2,1.71-2.11c0.41-0.91,0.62-1.95,0.62-3.14
				c0-1.19-0.21-2.24-0.62-3.15c-0.42-0.91-0.99-1.63-1.71-2.14c-0.73-0.51-1.55-0.76-2.48-0.76c-0.91,0-1.72,0.25-2.43,0.76
				c-0.72,0.51-1.29,1.22-1.71,2.14c-0.42,0.92-0.64,1.97-0.64,3.15c0,1.19,0.21,2.23,0.64,3.14c0.42,0.91,0.99,1.61,1.71,2.11
				C364.01,94.93,364.82,95.18,365.72,95.18"/>
			<path style="clip-path:url(#SVGID_00000139268699285001376680000007899037814634170804_);fill:#FFFFFF;" d="M379.1,95.94V82.36
				h1.07l0.11,2.09h0.08c0.7-0.7,1.42-1.28,2.16-1.74c0.74-0.46,1.58-0.69,2.5-0.69c1.41,0,2.45,0.43,3.11,1.29
				c0.66,0.86,0.99,2.16,0.99,3.92v8.71h-1.24V87.4c0-1.45-0.24-2.52-0.72-3.21c-0.48-0.69-1.28-1.03-2.39-1.03
				c-0.81,0-1.54,0.21-2.19,0.64c-0.65,0.42-1.4,1.06-2.25,1.91v10.24H379.1z"/>
			<path style="clip-path:url(#SVGID_00000139268699285001376680000007899037814634170804_);fill:#FFFFFF;" d="M400.32,96.28
				c-0.72,0-1.37-0.13-1.97-0.4c-0.6-0.26-1.07-0.67-1.43-1.23c-0.36-0.56-0.54-1.25-0.54-2.08c0-1.53,0.71-2.68,2.12-3.47
				c1.41-0.78,3.63-1.34,6.65-1.68c0-0.7-0.08-1.38-0.24-2.04c-0.16-0.66-0.47-1.2-0.93-1.63c-0.46-0.42-1.14-0.64-2.05-0.64
				c-0.91,0-1.74,0.17-2.49,0.52c-0.75,0.35-1.37,0.68-1.84,1l-0.57-0.88c0.32-0.25,0.74-0.5,1.24-0.78
				c0.51-0.27,1.09-0.5,1.74-0.69c0.65-0.19,1.34-0.28,2.08-0.28c1.06,0,1.9,0.24,2.53,0.71c0.63,0.47,1.08,1.1,1.36,1.9
				c0.27,0.79,0.41,1.67,0.41,2.63v8.68h-1.07l-0.11-1.75h-0.08c-0.68,0.55-1.43,1.03-2.25,1.46
				C402.06,96.07,401.2,96.28,400.32,96.28 M400.54,95.18c0.77,0,1.52-0.18,2.25-0.55c0.73-0.37,1.51-0.91,2.36-1.63v-4.58
				c-1.87,0.21-3.35,0.49-4.44,0.86c-1.09,0.37-1.88,0.82-2.35,1.34c-0.47,0.53-0.71,1.15-0.71,1.87c0,0.96,0.29,1.65,0.86,2.06
				C399.1,94.97,399.77,95.18,400.54,95.18"/>
			<path style="clip-path:url(#SVGID_00000139268699285001376680000007899037814634170804_);fill:#FFFFFF;" d="M416.1,96.17
				c-0.38,0-0.69-0.08-0.93-0.23c-0.25-0.15-0.43-0.39-0.55-0.71c-0.12-0.32-0.19-0.73-0.19-1.22V75.6h1.25v18.58
				c0,0.32,0.06,0.55,0.18,0.68c0.12,0.13,0.28,0.2,0.47,0.2c0.06,0,0.12,0,0.18-0.01c0.07-0.01,0.16-0.02,0.27-0.04l0.23,0.99
				c-0.13,0.06-0.27,0.1-0.41,0.13C416.45,96.15,416.29,96.17,416.1,96.17"/>
			<polygon style="clip-path:url(#SVGID_00000139268699285001376680000007899037814634170804_);fill:#FFFFFF;" points="
				433.33,95.94 433.33,77.3 434.63,77.3 434.63,85.47 444.61,85.47 444.61,77.3 445.91,77.3 445.91,95.94 444.61,95.94 
				444.61,86.6 434.63,86.6 434.63,95.94 			"/>
			<path style="clip-path:url(#SVGID_00000139268699285001376680000007899037814634170804_);fill:#FFFFFF;" d="M454.6,95.94V77.3
				h5.35c1.23,0,2.29,0.16,3.21,0.48c0.91,0.32,1.63,0.84,2.14,1.57c0.51,0.73,0.76,1.68,0.76,2.87c0,1.13-0.25,2.08-0.76,2.84
				c-0.51,0.76-1.22,1.34-2.14,1.73c-0.92,0.39-1.98,0.58-3.21,0.58h-4.05v8.57H454.6z M455.9,86.29h3.71c1.66,0,2.93-0.33,3.81-1
				c0.88-0.67,1.31-1.69,1.31-3.07c0-1.4-0.44-2.38-1.31-2.96c-0.88-0.58-2.15-0.86-3.81-0.86h-3.71V86.29z M464.92,95.94L459.63,87
				l1.24-0.37l5.54,9.31H464.92z"/>
		</g>
	</g>
</g>
</svg>
